<?xml version="1.0" encoding="UTF-8" standalone="no"?>
<!DOCTYPE svg PUBLIC "-//W3C//DTD SVG 1.1//EN" "http://www.w3.org/Graphics/SVG/1.1/DTD/svg11.dtd">
<svg xmlns="http://www.w3.org/2000/svg" version="1.1" viewBox="0.00 0.00 1024.00 1024.00">
<path fill="#7a3a3a" d="
  M 637.94 482.75
  Q 638.88 485.45 638.61 488.85
  A 0.45 0.45 0.0 0 0 639.06 489.34
  L 668.24 489.34
  A 0.28 0.28 0.0 0 0 668.51 489.00
  Q 668.49 488.89 668.42 488.73
  Q 668.34 488.56 668.34 488.49
  Q 668.35 472.68 668.31 269.26
  Q 668.31 263.23 665.28 251.43
  Q 660.27 231.87 642.47 224.33
  C 634.70 221.04 628.04 219.92 619.14 218.10
  C 613.80 217.02 613.67 210.55 613.86 206.35
  A 2.89 2.89 0.0 0 1 615.76 203.75
  Q 619.65 202.34 624.00 201.96
  Q 630.27 201.40 647.75 201.45
  Q 694.28 201.57 800.00 201.53
  Q 801.30 201.53 806.23 202.55
  A 1.46 1.43 73.2 0 1 806.94 202.94
  L 809.27 205.26
  A 0.84 0.84 0.0 0 1 809.49 205.71
  Q 810.25 211.13 808.60 215.16
  Q 807.90 216.87 805.43 217.43
  Q 793.80 220.09 783.27 224.29
  C 766.36 231.04 758.82 244.99 756.82 262.77
  Q 756.27 267.61 755.70 269.86
  A 1.29 1.04 57.4 0 0 755.67 270.13
  Q 755.67 532.28 755.67 728.76
  C 755.67 739.50 756.33 749.36 757.95 759.59
  C 760.27 774.20 766.89 786.93 780.57 793.93
  C 787.34 797.40 795.54 798.99 805.85 801.42
  C 810.15 802.43 810.01 807.54 809.56 811.12
  Q 809.15 814.35 805.82 815.35
  C 803.00 816.20 800.37 816.68 796.96 816.68
  Q 684.62 816.67 632.01 816.68
  C 626.89 816.68 620.37 816.10 615.96 814.66
  A 2.41 2.38 1.9 0 1 614.39 813.00
  Q 613.24 808.75 614.46 803.77
  A 1.87 1.77 76.5 0 1 614.95 802.92
  Q 616.22 801.69 618.11 801.33
  Q 626.85 799.69 636.86 796.59
  Q 660.42 789.29 665.83 764.83
  Q 667.74 756.20 668.14 749.99
  C 669.07 735.59 668.33 717.40 668.33 704.66
  Q 668.31 596.36 668.35 522.10
  A 0.43 0.43 0.0 0 0 667.92 521.67
  L 638.73 521.67
  A 0.22 0.21 -8.7 0 0 638.52 521.95
  Q 638.92 523.25 638.52 526.00
  Q 637.95 529.93 637.94 530.05
  Q 637.74 532.08 637.35 534.36
  C 630.85 572.99 610.27 608.20 576.31 628.72
  C 532.03 655.48 474.83 652.11 434.41 619.45
  C 409.37 599.22 392.43 568.87 386.96 537.23
  Q 386.75 536.01 386.43 535.46
  A 0.90 0.86 33.1 0 1 386.31 534.95
  Q 386.49 532.36 385.39 529.52
  A 0.65 0.65 0.0 0 1 385.34 529.27
  L 385.34 523.16
  A 1.49 1.49 0.0 0 0 383.85 521.67
  L 356.03 521.67
  A 0.35 0.35 0.0 0 0 355.68 522.02
  L 355.68 741.02
  A 1.04 1.00 35.6 0 0 355.75 741.39
  C 356.53 743.35 355.68 745.85 356.42 747.12
  Q 356.81 747.79 356.62 751.77
  Q 356.54 753.54 357.21 756.11
  Q 357.78 758.29 357.70 760.51
  A 1.62 1.60 -62.3 0 0 358.01 761.52
  Q 358.04 761.57 358.09 761.63
  A 1.90 1.71 25.0 0 1 358.36 762.27
  Q 364.23 790.54 391.98 797.77
  Q 397.50 799.20 406.53 801.43
  C 410.67 802.45 409.77 807.30 409.59 811.73
  A 1.92 1.84 -25.4 0 1 409.16 812.86
  Q 406.01 816.63 402.50 816.64
  Q 329.63 816.73 225.35 816.66
  A 1.58 1.47 -35.7 0 1 224.96 816.61
  Q 221.22 815.70 218.12 815.66
  A 2.93 2.89 58.0 0 1 216.90 815.37
  Q 215.88 814.88 215.01 814.84
  A 1.13 1.12 -4.6 0 1 213.96 813.95
  Q 212.91 808.91 215.01 804.38
  A 3.78 3.77 6.0 0 1 217.61 802.28
  C 219.08 801.95 220.29 801.33 222.26 801.32
  Q 223.61 801.32 224.27 800.90
  A 3.97 3.70 21.4 0 1 225.56 800.39
  Q 238.58 797.85 245.47 794.07
  C 265.46 783.10 268.96 759.90 269.17 739.25
  Q 269.54 702.43 269.32 659.25
  C 269.32 658.04 269.56 656.54 269.56 654.90
  Q 269.07 479.19 269.45 438.50
  Q 269.63 419.41 269.47 394.51
  Q 269.15 344.22 269.38 284.25
  Q 269.39 281.77 268.38 268.02
  C 266.78 246.30 258.64 228.20 235.91 222.01
  Q 227.46 219.71 217.01 217.37
  A 2.96 2.94 -5.1 0 1 214.92 215.63
  Q 213.31 211.82 213.81 207.14
  C 214.15 203.95 216.43 203.09 219.45 202.53
  Q 225.08 201.49 237.25 201.49
  Q 378.26 201.57 395.13 201.51
  Q 400.82 201.48 406.55 202.41
  A 3.52 3.51 -2.4 0 1 409.40 205.03
  Q 410.38 208.95 410.05 212.54
  Q 409.67 216.80 405.33 217.59
  C 395.58 219.37 385.03 221.62 377.42 226.13
  C 364.20 233.96 357.83 248.17 356.81 263.29
  Q 356.59 266.51 356.20 267.83
  A 3.96 3.85 -39.6 0 0 356.05 269.21
  Q 356.26 272.26 355.74 274.81
  A 3.21 3.00 52.5 0 0 355.68 275.42
  L 355.68 488.98
  A 0.35 0.35 0.0 0 0 356.03 489.33
  L 385.43 489.33
  A 0.11 0.11 0.0 0 0 385.51 489.14
  Q 385.20 488.81 385.33 487.49
  Q 387.74 463.03 397.89 440.63
  C 414.76 403.42 446.69 375.69 487.01 367.85
  C 493.68 366.55 501.74 365.27 509.38 365.28
  Q 527.60 365.30 542.31 368.91
  C 594.57 381.74 629.31 427.17 637.58 479.00
  Q 637.75 480.06 637.69 480.52
  Q 637.56 481.67 637.94 482.75
  Z
  M 434.25 530.94
  Q 434.51 536.12 435.02 539.46
  C 439.98 572.01 450.71 605.48 480.19 623.31
  C 500.36 635.51 527.16 634.44 546.99 621.95
  C 571.00 606.83 582.39 578.45 587.24 551.73
  Q 590.47 533.90 591.18 521.75
  Q 591.99 507.83 591.16 486.56
  C 591.14 485.83 590.70 484.97 590.66 484.26
  Q 589.17 461.23 582.79 439.43
  C 575.16 413.38 558.69 387.10 531.05 379.96
  Q 515.03 375.82 498.92 378.71
  C 476.08 382.82 457.64 399.93 448.32 420.31
  Q 438.76 441.26 435.15 467.98
  Q 435.10 468.29 434.91 468.51
  A 0.96 0.96 0.0 0 0 434.68 469.16
  Q 434.82 473.72 433.81 478.43
  A 5.62 5.44 -39.7 0 0 433.68 479.62
  L 433.68 485.12
  A 5.47 5.15 -39.7 0 1 433.52 486.41
  Q 432.85 489.18 433.23 493.27
  Q 433.28 493.83 432.85 494.38
  A 0.80 0.78 -25.9 0 0 432.67 494.88
  L 432.67 517.14
  A 1.40 1.37 34.1 0 0 432.78 517.68
  C 433.73 520.05 433.09 522.59 433.56 525.51
  Q 433.87 527.39 433.59 530.31
  A 0.12 0.12 0.0 0 0 433.69 530.44
  Q 433.79 530.46 433.86 530.47
  A 0.51 0.51 0.0 0 1 434.25 530.94
  Z"
/>
<path fill="#7a3a3a" d="
  M 448.82 518.73
  Q 448.57 518.79 448.52 518.78
  A 0.50 0.50 0.0 0 1 448.16 518.22
  Q 448.68 515.16 447.47 511.56
  A 2.84 2.63 38.3 0 1 447.34 510.73
  L 447.33 499.19
  A 0.72 0.71 77.8 0 1 447.74 498.54
  Q 447.75 498.53 448.01 498.52
  A 0.33 0.33 0.0 0 0 448.32 498.19
  L 448.32 492.25
  A 2.93 2.93 0.0 0 1 451.25 489.32
  L 573.91 489.32
  A 0.24 0.08 26.6 0 1 573.98 489.33
  Q 574.48 489.46 574.48 489.83
  A 0.47 0.46 -9.4 0 0 575.09 490.26
  Q 575.34 490.18 575.40 490.20
  A 0.58 0.57 -78.3 0 1 575.75 490.75
  L 575.63 494.10
  A 0.77 0.76 21.0 0 0 575.91 494.71
  Q 576.00 494.79 576.06 494.83
  A 0.49 0.46 16.5 0 1 576.26 495.17
  Q 577.17 504.30 576.33 513.89
  A 0.95 0.92 72.4 0 1 576.01 514.53
  Q 575.90 514.62 575.87 514.65
  A 0.30 0.30 0.0 0 0 575.75 514.89
  L 575.65 518.49
  A 3.28 3.28 0.0 0 1 572.37 521.68
  L 450.89 521.69
  A 1.26 1.24 64.5 0 1 450.09 521.40
  Q 448.92 520.46 449.37 519.36
  A 0.47 0.47 0.0 0 0 448.82 518.73
  Z"
/>
</svg>
